<svg width="188" height="62" viewBox="0 0 188 62" fill="none" xmlns="http://www.w3.org/2000/svg">
<path d="M22 61.2C17.2533 61.2 13.28 60 10.08 57.6C6.90667 55.2 4.52 51.7333 2.92 47.2C1.32 42.64 0.52 37.1067 0.52 30.6C0.52 21.0533 2.32 13.68 5.92 8.48C9.54667 3.28 14.9067 0.679998 22 0.679998C29.0933 0.679998 34.44 3.28 38.04 8.48C41.6667 13.68 43.48 21.0533 43.48 30.6C43.48 37.1067 42.68 42.64 41.08 47.2C39.48 51.7333 37.08 55.2 33.88 57.6C30.7067 60 26.7467 61.2 22 61.2ZM22 49.52C24.8533 49.52 27 48 28.44 44.96C29.88 41.8933 30.6 37.1067 30.6 30.6C30.6 24.2267 29.88 19.6 28.44 16.72C27 13.8133 24.8533 12.36 22 12.36C19.1733 12.36 17.0267 13.8133 15.56 16.72C14.12 19.6 13.4 24.2267 13.4 30.6C13.4 37.1067 14.12 41.8933 15.56 44.96C17.0267 48 19.1733 49.52 22 49.52ZM70.3288 60.8C66.1154 60.8 62.3421 60.1067 59.0088 58.72C55.7021 57.3067 53.1154 55.1333 51.2487 52.2C49.4088 49.2667 48.5688 45.52 48.7288 40.96H60.9288C60.9821 42.88 61.3154 44.52 61.9288 45.88C62.5688 47.24 63.5821 48.28 64.9688 49C66.3821 49.6933 68.2488 50.04 70.5688 50.04C72.2488 50.04 73.6888 49.8 74.8888 49.32C76.0888 48.8133 76.9954 48.1067 77.6088 47.2C78.2488 46.2933 78.5688 45.2267 78.5688 44C78.5688 42.64 78.1554 41.56 77.3288 40.76C76.5288 39.96 75.2888 39.2 73.6088 38.48C71.9288 37.76 69.7954 36.8533 67.2088 35.76C63.9554 34.3733 61.0354 32.88 58.4488 31.28C55.8888 29.68 53.8754 27.76 52.4088 25.52C50.9421 23.2533 50.2088 20.4533 50.2088 17.12C50.2088 13.6 51.0221 10.64 52.6488 8.24C54.3021 5.81333 56.5954 3.98666 59.5288 2.76C62.4888 1.53333 65.9288 0.919995 69.8488 0.919995C75.9021 0.919995 80.5288 2.44 83.7288 5.48C86.9288 8.49333 88.7288 12.96 89.1287 18.88H77.1688C77.1154 17.3333 76.7821 16.0267 76.1688 14.96C75.5554 13.8933 74.7154 13.08 73.6488 12.52C72.5821 11.96 71.3288 11.68 69.8888 11.68C67.7021 11.68 65.9288 12.1067 64.5688 12.96C63.2088 13.7867 62.5288 15.1067 62.5288 16.92C62.5288 18.3067 62.8488 19.4667 63.4888 20.4C64.1288 21.3333 65.1821 22.2133 66.6488 23.04C68.1421 23.8667 70.1154 24.8267 72.5688 25.92C74.8888 26.9333 77.1554 27.88 79.3688 28.76C81.5821 29.6133 83.5688 30.6133 85.3288 31.76C87.0888 32.88 88.4888 34.36 89.5288 36.2C90.5954 38.0133 91.1288 40.3867 91.1288 43.32C91.1554 47.0533 90.2754 50.2267 88.4888 52.84C86.7021 55.4533 84.2354 57.44 81.0888 58.8C77.9688 60.1333 74.3821 60.8 70.3288 60.8ZM109.178 46.88L109.258 31.04L115.818 20.72L127.178 1.84H141.658L123.658 28.2L119.258 33.24L109.178 46.88ZM98.0175 60V1.84H110.618V60H98.0175ZM128.338 60L113.578 30.56L122.258 23.2L142.778 60H128.338ZM165.906 61.2C161.16 61.2 157.186 60 153.986 57.6C150.813 55.2 148.426 51.7333 146.826 47.2C145.226 42.64 144.426 37.1067 144.426 30.6C144.426 21.0533 146.226 13.68 149.826 8.48C153.453 3.28 158.813 0.679998 165.906 0.679998C173 0.679998 178.346 3.28 181.946 8.48C185.573 13.68 187.386 21.0533 187.386 30.6C187.386 37.1067 186.586 42.64 184.986 47.2C183.386 51.7333 180.986 55.2 177.786 57.6C174.613 60 170.653 61.2 165.906 61.2ZM165.906 49.52C168.76 49.52 170.906 48 172.346 44.96C173.786 41.8933 174.506 37.1067 174.506 30.6C174.506 24.2267 173.786 19.6 172.346 16.72C170.906 13.8133 168.76 12.36 165.906 12.36C163.08 12.36 160.933 13.8133 159.466 16.72C158.026 19.6 157.306 24.2267 157.306 30.6C157.306 37.1067 158.026 41.8933 159.466 44.96C160.933 48 163.08 49.52 165.906 49.52Z" fill="url(#paint0_linear_4_15)"/>
<defs>
<linearGradient id="paint0_linear_4_15" x1="190" y1="-17" x2="12.5" y2="60" gradientUnits="userSpaceOnUse">
<stop offset="0.0104167" stop-color="#0F0F0F"/>
<stop offset="1" stop-color="#F24B6A"/>
</linearGradient>
</defs>
</svg>
